<svg width="53" height="33" viewBox="0 0 53 33" fill="none" xmlns="http://www.w3.org/2000/svg">
<path d="M28 24.8711C28.5 25.5736 29.3001 25.8747 30.2001 25.7743C29.9001 26.1757 29.4 26.3764 28.8 26.3764C28.8 26.3764 29.6 26.7779 30 26.5772C30 26.5772 29.3 27.38 27.3 27.0789" fill="white"/>
<path d="M1.30009 16.2405C2.90009 17.8462 3.10009 18.5487 3.00009 18.8497C3.00009 19.4519 3.20009 21.0576 3.20009 21.0576C3.40009 21.5594 3.90009 21.9608 4.50009 21.9608H5.20009C5.40009 21.9608 5.50009 22.0611 5.50009 22.2619C5.50009 22.4626 5.60009 22.5629 5.80009 22.6633C6.20009 22.7636 7.00009 22.4626 7.00009 22.9643V24.269C7.00009 24.5701 7.20009 24.7708 7.40009 24.8711C8.20009 25.0718 8.80009 25.674 9.00009 26.4768C9.00009 26.4768 9.00009 26.5772 9.10009 26.5772C9.10009 26.5772 9.20009 26.5772 9.20009 26.4768C9.60009 25.4733 11.0001 22.1615 12.7001 22.1615C13.7001 22.0611 14.7001 22.5629 15.2001 23.4661L15.1001 27.6811C15.1001 27.6811 15.0001 28.484 15.3001 28.785C15.4001 28.8854 15.5001 29.0861 15.5001 29.2868C15.4001 29.6882 15.1001 31.7957 15.5001 32.2975L17.7001 31.2939C18.0001 31.0932 17.2001 30.8925 17.2001 30.2904C17.2001 29.6882 17.5001 28.9857 17.3001 28.785C17.1001 28.6847 17.1001 28.3836 17.3001 28.2832C18.3001 27.2797 19.6001 26.5772 21.0001 26.2761C23.4001 25.674 23.5001 24.269 23.5001 23.8676C23.6001 24.4697 23.8001 27.1793 24.4001 27.7815C25.0001 28.3836 25.2001 29.3872 24.7001 30.19C24.2001 31.0932 23.2001 33 23.2001 33H26.0001L25.8001 32.4982C25.6001 32.0968 25.8001 31.595 26.1001 31.3943H26.2001C26.7001 31.1936 27.0001 30.5914 26.9001 30.0897C26.9001 30.0897 26.5001 28.9857 27.2001 29.4875C27.4001 29.5879 27.6001 29.5879 27.7001 29.4875C28.1001 28.9857 28.3001 28.484 28.5001 27.9822C28.5001 27.8818 28.5001 27.7815 28.5001 27.6811L28.3001 26.9786C28.3001 26.8783 28.3001 26.7779 28.3001 26.5772L28.5001 26.1758C28.6001 25.975 28.6001 25.8747 28.5001 25.674C28.3001 25.1722 28.0001 24.7708 27.7001 24.4697C27.0001 23.7672 27.4001 22.0611 27.7001 21.6597C27.8001 21.5594 27.9001 21.459 28.0001 21.5594C29.2001 21.7601 35.3001 22.7636 36.4001 22.5629C37.5001 22.2619 38.6001 21.7601 39.6001 21.0576C39.9001 20.8569 40.4001 20.9572 40.6001 21.2583C40.6001 21.3586 40.7001 21.459 40.7001 21.5594C41.0001 23.1651 41.5001 26.0754 41.2001 27.079C40.9001 28.2832 38.8001 30.6918 38.4001 31.1936C38.4001 31.2939 38.3001 31.2939 38.2001 31.2939C37.8001 31.4947 36.5001 32.2975 36.5001 32.8996H39.2001V32.4982C39.2001 32.3979 39.3001 32.3979 39.3001 32.3979C39.3001 32.3979 39.3001 32.3979 39.4001 32.3979C39.6001 32.4982 39.8001 32.4982 40.0001 32.4982C40.3001 32.3979 42.3001 27.5807 43.5001 27.2797C44.7001 26.9786 44.3001 25.3729 44.3001 25.3729C44.1001 24.1686 44.2001 22.864 44.6001 21.7601C44.8001 21.459 45.1001 21.3586 45.4001 21.459C45.5001 21.459 45.5001 21.5594 45.6001 21.5594L47.1001 23.1651C47.6001 23.5665 48.1001 23.8676 48.6001 24.1686C49.0001 24.3693 49.3001 24.7708 49.5001 25.1722L50.9001 29.1865L49.8001 31.595H52.1001C52.5001 31.0932 52.5001 30.4911 52.3001 29.8889C52.3001 29.7886 52.3001 29.7886 52.3001 29.6882C52.3001 29.6882 52.3001 29.6882 52.4001 29.6882H52.6001C52.7001 29.6882 52.7001 29.5879 52.7001 29.5879C52.7001 29.5879 52.7001 29.5879 52.7001 29.4875C51.4001 27.38 50.6001 25.0718 50.6001 22.5629C50.6001 22.5629 50.5001 21.5594 49.9001 21.5594C49.5001 21.5594 48.8001 20.7565 48.4001 20.054C48.1001 19.6526 48.0001 19.2512 47.9001 18.7494V17.1437C47.9001 16.8426 48.0001 16.5415 48.1001 16.2405C48.4001 15.538 49.1001 13.9323 48.8001 12.9287C48.8001 12.728 48.7001 12.5273 48.6001 12.4269C48.5001 12.2262 48.5001 12.1258 48.4001 11.9251C48.1001 11.323 47.7001 10.8212 47.2001 10.3194H46.7001C46.6001 10.2191 46.5001 10.1187 46.3001 10.0184L43.9001 8.31229L43.6001 8.11158C43.6001 8.11158 41.4001 6.30516 40.0001 6.40552C38.9001 6.40552 34.1001 3.79625 32.4001 2.79268C32.0001 2.59197 31.5001 2.2909 31.0001 2.19054C28.9001 1.48805 22.8001 -0.418725 21.3001 0.0830575C19.5001 0.484484 17.7001 0.58484 15.8001 0.484484C15.3001 0.484484 14.9001 0.685197 14.6001 0.986266C13.2001 2.19054 12.0001 3.59554 10.9001 5.10088C10.7001 5.40195 10.3001 5.60267 9.90009 5.60267L7.20009 5.20124C6.80009 5.20124 6.40009 5.20124 6.00009 5.3016C6.80009 6.30516 7.30009 7.50944 7.50009 8.71372C7.70009 10.1187 6.70009 11.4233 5.30009 11.6241C5.10009 11.6241 2.40009 11.5237 4.20009 9.01479C4.70009 8.11158 4.90009 6.9073 4.60009 5.90374C4.10009 6.20481 3.60009 6.70659 3.30009 7.10801C2.20009 8.61336 1.30009 9.71728 0.800091 10.3194C0.400091 10.7208 0.200091 11.323 0.100091 11.8248C-0.199909 13.5308 0.200091 15.1365 1.30009 16.2405Z" fill="white"/>
<path d="M20.9001 27.1793C20.4001 26.3764 19.5001 26.0754 18.7001 26.2761C18.4001 26.3764 19.0001 25.6739 18.6001 25.6739C18.6001 25.6739 21.4001 25.4732 21.3001 24.4697C21.2001 23.5665 20.9001 27.1793 20.9001 27.1793Z" fill="white"/>
<path d="M2.8002 1.28732C3.6002 2.89303 4.3002 4.49873 4.7002 6.20479C5.2002 5.90372 5.7002 5.70301 6.2002 5.60265C5.4002 4.29802 3.8002 1.98982 3.0002 1.18697C2.9002 1.08661 2.8002 1.18697 2.7002 1.18697C2.8002 1.18697 2.8002 1.18697 2.8002 1.28732Z" fill="white"/>
</svg>
