<svg width="20" height="20" viewBox="0 0 20 20" fill="none" xmlns="http://www.w3.org/2000/svg">
<path d="M20 3.83366C19.25 4.16699 18.5 4.41699 17.6667 4.50033C18.5 4.00033 19.1667 3.16699 19.5 2.25033C18.6667 2.75033 17.8333 3.08366 16.9167 3.25033C16.1667 2.41699 15.0833 1.91699 13.9167 1.91699C11.6667 1.91699 9.83333 3.75032 9.83333 6.00032C9.83333 6.33366 9.83333 6.66699 9.91667 6.91699C6.41667 6.75033 3.41667 5.08366 1.41667 2.58366C1 3.25033 0.833333 3.91699 0.833333 4.66699C0.833333 6.08366 1.58333 7.33366 2.66667 8.08366C2 8.08366 1.33333 7.91699 0.833333 7.58366C0.833333 7.58366 0.833333 7.58366 0.833333 7.66699C0.833333 9.66699 2.25 11.3337 4.08333 11.667C3.75 11.7503 3.41667 11.8337 3 11.8337C2.75 11.8337 2.5 11.8337 2.25 11.7503C2.75 13.417 4.25 14.5837 6.08333 14.5837C4.66667 15.667 2.91667 16.3337 1 16.3337C0.666667 16.3337 0.333333 16.3337 0 16.2503C1.83333 17.417 4 18.0837 6.25 18.0837C13.8333 18.0837 17.9167 11.8337 17.9167 6.41699C17.9167 6.25032 17.9167 6.08366 17.9167 5.91699C18.75 5.33366 19.4167 4.58366 20 3.83366Z" fill="white"/>
</svg>
